<svg width="254" height="89" viewBox="0 0 254 89" fill="none" xmlns="http://www.w3.org/2000/svg">
<path d="M62.3991 14.3026H54.1231L47.4842 22.527L42.248 14.3026H33.8971L42.9791 27.9704L37.1744 35.098H16.9265C13.7554 35.098 11.5466 34.3949 10.2938 32.9732C9.03475 31.5576 8.52863 29.2234 8.75357 25.9862H24.4464L24.9306 19.5054L9.28781 19.4804C9.65022 16.5618 10.6125 14.3964 12.1558 12.9808C13.6929 11.5591 15.8799 10.8497 18.7166 10.8497H31.9476L27.9392 4.37207H19.0478C13.0587 4.37207 8.52863 5.93133 5.44505 9.06861C2.36772 12.1965 0.583809 17.0462 0.093311 23.6332C-0.159749 27.0267 0.102684 29.9359 0.871235 32.3826C1.63979 34.8199 2.92383 36.7948 4.72336 38.3072C6.09801 39.4977 7.61637 40.332 9.23782 40.8351C10.8655 41.3351 13.1462 41.5819 16.0642 41.5819L40.2798 41.6194L46.65 33.6887L51.8456 41.6194H60.2246L51.2738 28.1485L62.3991 14.3026Z" fill="white"/>
<path d="M66.2863 14.302H82.1791C86.3686 14.302 89.5397 15.5331 91.7048 17.9923C93.8605 20.464 94.7883 23.895 94.4634 28.2947C94.3291 30.1008 93.9604 31.757 93.3637 33.2694C92.7545 34.7786 91.9141 36.1598 90.8269 37.4066C89.5303 38.9096 88.0307 39.9783 86.3311 40.6282C84.6253 41.2875 82.4103 41.6125 79.6797 41.6125H73.4782L72.744 51.5149H65.5303L67.7672 20.3234L66.2895 14.2988L66.2863 14.302ZM75.0559 20.1953L73.9094 35.7629H78.3082C81.2356 35.7629 83.3382 35.1473 84.6503 33.9162C85.9531 32.6788 86.7186 30.632 86.9248 27.7604C87.1309 24.9918 86.7185 23.0451 85.6907 21.9014C84.6628 20.764 82.7758 20.1953 80.0265 20.1953H75.0559Z" fill="white"/>
<path d="M105.326 41.2096H97.8057L100.777 1H108.312L105.326 41.2096Z" fill="white"/>
<path d="M139.639 27.9697C139.317 32.2569 137.764 35.6785 134.965 38.2315C132.175 40.7782 128.564 42.0656 124.137 42.0656C119.71 42.0656 116.276 40.775 113.855 38.2158C111.402 35.6504 110.34 32.2381 110.656 27.9697C110.974 23.6763 112.552 20.2515 115.376 17.6736C118.188 15.1019 121.809 13.8145 126.233 13.8145C130.657 13.8145 134.037 15.1019 136.468 17.6736C138.898 20.2515 139.964 23.6763 139.642 27.9697M118.223 27.9697C118.032 30.5726 118.491 32.5881 119.594 34.0411C120.706 35.4942 122.346 36.2222 124.53 36.2222C126.714 36.2222 128.432 35.4942 129.77 34.0411C131.107 32.5881 131.882 30.5726 132.078 27.9697C132.263 25.3699 131.797 23.3482 130.682 21.9045C129.57 20.464 127.923 19.7453 125.746 19.7453C123.568 19.7453 121.84 20.464 120.509 21.9201C119.172 23.3638 118.416 25.3886 118.223 27.9697Z" fill="white"/>
<path fill-rule="evenodd" clip-rule="evenodd" d="M243.728 47.0971C248.464 48.2658 251.182 51.2781 251.182 55.2903C251.182 59.5494 248.055 65.1021 242.303 70.2299C235.952 75.8951 226.379 81.0353 216.894 82.7915C203.782 85.2225 195.331 80.7135 198.662 70.8673C201.373 62.8835 210.377 56.1152 220.715 51.5812L216.788 44.2973C210.334 46.4722 203.682 49.6719 197.771 53.6935C185.359 62.1492 178.589 72.2828 181.182 80.0542C186.137 94.85 215.17 89.416 234.49 77.3387C247.396 69.2768 254.363 59.0244 253.988 52.0999C253.738 47.7002 250.729 44.1505 245.537 42.335L243.731 47.0971H243.728Z" fill="white"/>
<path fill-rule="evenodd" clip-rule="evenodd" d="M237.283 40.9098C236.349 40.8723 235.477 40.8817 234.487 40.9067L232.981 40.9661C230.875 41.1004 228.432 41.4098 226.02 41.866L225.495 48.9405C228.169 48.0281 230.809 47.3469 233.34 46.9438L234.54 46.7875C235.327 46.6907 236.021 46.625 236.789 46.5657C238.639 46.4532 240.319 46.5219 241.797 46.7282L243.506 41.7285C241.697 41.2754 239.62 40.9911 237.283 40.9067V40.9098Z" fill="white"/>
<path d="M232.552 16.1141C232.002 16.1141 231.49 16.011 231.012 15.8047C230.534 15.5985 230.121 15.3204 229.772 14.9642C229.422 14.6111 229.147 14.1955 228.944 13.7236C228.741 13.2487 228.641 12.7456 228.641 12.2112V12.1894C228.641 11.655 228.741 11.1519 228.944 10.677C229.147 10.202 229.425 9.78642 229.778 9.43019C230.131 9.07397 230.549 8.78961 231.027 8.58025C231.509 8.37089 232.024 8.26465 232.571 8.26465C233.118 8.26465 233.633 8.36777 234.111 8.574C234.589 8.78024 235.001 9.05834 235.351 9.41457C235.701 9.76767 235.976 10.1833 236.179 10.6551C236.382 11.1269 236.482 11.6332 236.482 12.1675V12.1894C236.482 12.7237 236.382 13.2268 236.179 13.7018C235.976 14.1736 235.698 14.5892 235.345 14.9485C234.992 15.3048 234.573 15.5891 234.095 15.7985C233.614 16.0078 233.099 16.1141 232.552 16.1141ZM232.552 15.6829C233.052 15.6829 233.511 15.5891 233.933 15.4048C234.355 15.2204 234.723 14.9704 235.033 14.6579C235.342 14.3423 235.586 13.9736 235.764 13.5455C235.942 13.1206 236.029 12.6675 236.029 12.1894V12.1675C236.029 11.6894 235.942 11.2394 235.764 10.8176C235.586 10.3957 235.345 10.027 235.039 9.71142C234.733 9.39582 234.367 9.14896 233.942 8.96772C233.521 8.78649 233.061 8.69587 232.571 8.69587C232.08 8.69587 231.612 8.78649 231.19 8.97397C230.768 9.15834 230.4 9.40832 230.09 9.7208C229.781 10.0364 229.534 10.4051 229.359 10.8332C229.181 11.2582 229.094 11.7113 229.094 12.1894V12.2112C229.094 12.6893 229.181 13.1393 229.353 13.5611C229.528 13.983 229.768 14.3517 230.081 14.6673C230.39 14.9829 230.759 15.2298 231.181 15.411C231.602 15.5923 232.058 15.6829 232.552 15.6829ZM230.946 9.98953H232.799C233.355 9.98953 233.786 10.1395 234.089 10.4457C234.32 10.677 234.436 10.9801 234.436 11.3551V11.3769C234.436 11.7175 234.352 11.9894 234.186 12.2019C234.02 12.4112 233.802 12.5675 233.536 12.6675L234.555 14.1642H233.483L232.596 12.8206H231.868V14.1642H230.946V9.98953ZM232.79 12.03C233.021 12.03 233.199 11.9738 233.321 11.8613C233.443 11.7488 233.505 11.6082 233.505 11.4332V11.4113C233.505 11.2082 233.439 11.0582 233.311 10.9551C233.18 10.8551 233.002 10.802 232.771 10.802H231.871V12.0269H232.793L232.79 12.03Z" fill="white"/>
<path d="M142.504 14.3021H172.752C176.764 14.3021 179.601 15.0865 181.25 16.6614C182.912 18.2237 183.609 20.7673 183.343 24.2952L182.062 41.6158H174.799L176.008 25.2295C176.158 23.2234 175.952 21.9016 175.392 21.2548C174.836 20.6111 173.608 20.2923 171.718 20.2923H167.669L166.092 41.6127H158.728L160.306 20.2923H151.876L150.293 41.6127H143.032L144.625 20.0892L142.504 14.2959V14.3021Z" fill="white"/>
<path d="M196.892 11.1839H189.322L189.838 4.39062H197.392L196.892 11.1839ZM194.64 41.6161H187.076L189.098 14.3024H196.661L194.64 41.6161Z" fill="white"/>
<path d="M201.342 14.3018H216.641C220.743 14.3018 223.608 15.0642 225.255 16.611C226.898 18.1609 227.585 20.7201 227.32 24.2948L224.927 56.5206L218.844 41.3342L220.037 25.1822C220.19 23.1386 219.969 21.8137 219.381 21.2075C218.797 20.6044 217.538 20.2951 215.638 20.2951H209.843L208.272 41.6154H201.055L202.636 20.3263L201.339 14.3018H201.342Z" fill="white"/>
<path d="M31.882 61.0461H27.4644L27.43 61.0961C27.3988 61.1398 27.3113 61.2523 27.0645 61.5211C26.8614 61.7429 26.6771 61.9367 26.5115 62.0929C26.5115 62.0929 22.9593 65.3583 21.9908 66.2488C22.0939 65.6645 22.8999 61.043 22.8999 61.043H18.148L17.7388 61.7054L17.9293 61.7179C18.1168 61.7304 18.2949 61.7523 18.4605 61.7867C18.6104 61.8179 18.7291 61.8835 18.826 61.9835C18.8885 62.0523 18.9072 62.146 18.8885 62.2741C18.8635 62.4241 18.776 62.6179 18.6354 62.8491L16.1173 66.9269C15.8299 67.3925 15.5706 67.7581 15.3488 68.0112C15.1363 68.255 14.9082 68.4299 14.6677 68.5299C14.4459 68.6268 14.1897 68.6956 13.9085 68.733L13.2368 68.8174L13.2056 68.8643L12.8213 69.483H17.3545L17.7606 68.8299L17.5763 68.8112C17.4732 68.7987 17.2983 68.758 17.0546 68.6862C16.7484 68.5956 16.664 68.5206 16.6422 68.4924C16.6047 68.4487 16.5859 68.3893 16.5859 68.3112C16.5859 68.2393 16.6016 68.155 16.6328 68.0581C16.7078 67.8206 16.8921 67.4613 17.1827 66.9925C17.1827 66.9925 19.4633 63.2991 19.9632 62.4929C19.7976 63.4272 19.0728 67.5363 19.0728 67.5363L18.9103 68.4393L18.8385 68.8455C18.7573 69.2955 18.6229 70.0486 18.5979 70.1392L18.4823 70.536L19.8101 69.308C19.8101 69.308 25.9929 63.624 27.0239 62.6741C26.3365 63.7834 23.6716 68.1018 23.6716 68.1018C23.5841 68.2425 23.4779 68.3612 23.3529 68.4518C23.228 68.5456 23.0686 68.6174 22.8781 68.6737C22.7812 68.7049 22.6125 68.7299 22.3751 68.758L21.7159 68.8205L21.6846 68.8674L21.3003 69.4861H26.9301L27.3332 68.8362L26.6927 68.7487C26.4584 68.7112 26.3584 68.6799 26.3147 68.6581C26.221 68.6112 26.1647 68.5612 26.1647 68.5174C26.1647 68.4674 26.1835 68.3799 26.2741 68.23L29.8763 62.4022C29.9512 62.2804 30.0481 62.1679 30.1637 62.071C30.273 61.9742 30.4292 61.9023 30.6198 61.8585C30.7885 61.821 30.9604 61.7898 31.1322 61.7679L31.6727 61.7179L31.707 61.6711L32.0882 61.0492H31.882V61.0461Z" fill="white"/>
<path d="M34.5504 63.336C34.5036 63.7984 34.3161 65.5733 34.3005 65.7452H31.9698C32.3166 65.4202 34.2068 63.6578 34.5504 63.336ZM37.5465 60.9268H36.1156L32.0698 64.5577L28.4395 67.8169C28.2427 67.9981 28.0365 68.1544 27.8272 68.2856C27.6178 68.4169 27.3929 68.5262 27.1523 68.6168C27.0118 68.6731 26.8368 68.7168 26.6337 68.7481C26.4275 68.7793 26.2432 68.8012 26.0901 68.8074H26.0308L25.6152 69.4824H29.9235L30.3296 68.8231L30.1422 68.8074C29.5361 68.7606 29.2799 68.6856 29.1706 68.6293C29.0956 68.5918 29.0612 68.5543 29.055 68.5356V68.5293C29.055 68.5137 29.0643 68.495 29.0706 68.4825L29.2143 68.2887C29.2862 68.195 29.4361 68.0419 29.6548 67.8263L30.2547 67.2576L30.8045 66.7826C30.8045 66.7826 31.0388 66.5826 31.0919 66.5357H34.188C34.1474 66.7732 33.8818 68.3044 33.8818 68.3044C33.8725 68.3762 33.86 68.4137 33.8506 68.4356L33.8037 68.5231C33.8037 68.5231 33.7319 68.6168 33.232 68.695C32.8634 68.7543 32.5447 68.7918 32.2854 68.8074H32.2292L31.8136 69.4824H37.4434L37.8527 68.8199L37.659 68.8106C37.5278 68.8043 37.3903 68.7856 37.2466 68.7543C37.1091 68.7262 36.9998 68.6856 36.9186 68.6325C36.8217 68.5637 36.7592 68.4918 36.7342 68.42C36.7061 68.3419 36.6967 68.2544 36.7061 68.1575C36.7842 67.4607 36.8998 66.5576 37.0529 65.4764C37.206 64.4015 37.3997 62.9579 37.6465 61.0642L37.6621 60.9299H37.534L37.5465 60.9268Z" fill="white"/>
<path d="M46.6541 60.9609H41.3148L40.918 61.6046L41.5366 61.7078C41.7053 61.739 41.8428 61.7796 41.9459 61.8265C42.0615 61.8796 42.1021 61.9296 42.1021 61.9546C42.099 62.0046 42.074 62.0952 41.9834 62.2452L37.6689 68.9385L37.5377 69.1572L37.3565 69.4603L37.2159 69.6916C37.0534 69.9634 36.9722 70.0978 36.7441 70.2322C36.5004 70.3759 36.2317 70.3571 36.2286 70.3571C36.2224 70.3571 33.7855 70.354 33.7855 70.354H33.6793L33.623 71.2758L37.9219 71.2665C38.6842 71.2665 39.1029 70.7384 40.4275 68.9104C40.4307 68.9041 44.6796 62.3171 44.6796 62.3171C44.7608 62.1858 44.8576 62.0702 44.967 61.9702C45.0701 61.8765 45.2232 61.8078 45.4169 61.7703L45.8949 61.6921L46.451 61.6265L46.4822 61.5796L46.8665 60.9609H46.6603H46.6541Z" fill="white"/>
<path d="M45.8346 68.6672C45.6565 68.4985 45.5722 68.2641 45.5784 67.9516C45.5847 67.6298 45.6815 67.2423 45.8627 66.7986C46.047 66.3486 46.3001 65.8643 46.6125 65.3581C47.3498 64.1613 48.1465 63.227 48.9744 62.5739C49.7961 61.9271 50.6209 61.599 51.43 61.599C51.8862 61.599 52.2048 61.6958 52.3798 61.8833C52.5547 62.0739 52.6328 62.3239 52.6141 62.6426C52.5922 62.977 52.4829 63.3676 52.2923 63.8051C52.0986 64.2488 51.8518 64.7112 51.5612 65.1831C51.2207 65.7362 50.8614 66.2393 50.499 66.6799C50.1366 67.1173 49.743 67.5142 49.3243 67.861C48.9307 68.1891 48.512 68.4516 48.0746 68.6391C47.6435 68.8266 47.1999 68.9203 46.7594 68.9203C46.3188 68.9203 46.0127 68.8328 45.8346 68.6641M49.4618 61.124C48.6745 61.3334 47.9122 61.6333 47.1967 62.0177C46.4719 62.4114 45.7877 62.8864 45.1723 63.4363C44.5537 63.9863 44.0288 64.6113 43.6102 65.2893C43.2009 65.9487 42.9728 66.5549 42.9291 67.0986C42.8854 67.6517 42.9978 68.1266 43.2696 68.5141C43.5352 68.9047 43.9413 69.2078 44.4787 69.414C45.0067 69.614 45.6409 69.7171 46.3688 69.7171C47.2624 69.7171 48.1153 69.6015 48.9057 69.3734C49.693 69.1453 50.4615 68.8235 51.1957 68.4172C51.8955 68.0235 52.5422 67.5485 53.1233 67.0048C53.7044 66.458 54.1856 65.8768 54.5573 65.2737C54.9822 64.5894 55.2165 63.9675 55.2572 63.4238C55.3009 62.8739 55.1822 62.3958 54.9104 62.0021C54.6479 61.624 54.2418 61.3271 53.7013 61.1209C53.1702 60.9146 52.5204 60.8115 51.7768 60.8115C51.0333 60.8115 50.2522 60.9178 49.4649 61.124" fill="white"/>
<path d="M64.7393 61.5492C64.2738 61.2086 63.4272 61.043 62.1556 61.043H56.5602L56.1603 61.6835L56.7632 61.7898C56.9351 61.821 57.0819 61.8648 57.1913 61.9085C57.3037 61.9617 57.3443 62.0117 57.3443 62.0398C57.3412 62.0898 57.3162 62.1804 57.2225 62.3304L53.6359 68.1331C53.5516 68.2706 53.4579 68.38 53.3485 68.4674C53.2423 68.5518 53.0861 68.6268 52.8799 68.6831C52.7768 68.7143 52.6081 68.7393 52.38 68.7612L51.7583 68.8143L51.7271 68.8643L51.3428 69.483H56.8882L57.2944 68.8268L57.1069 68.808C56.9819 68.7987 56.8351 68.7768 56.6726 68.7456C56.5133 68.7143 56.4008 68.6862 56.3446 68.6581C56.2821 68.6299 56.2071 68.5768 56.204 68.5174C56.204 68.4612 56.2259 68.3737 56.3134 68.2331C56.3134 68.2331 57.7567 65.8958 57.8224 65.7926H58.0629C58.2879 66.4051 58.4659 66.9488 58.5878 67.4144C58.7127 67.8987 58.844 68.5612 58.9846 69.3861L59.0002 69.4799H62.921L63.3272 68.8268L62.8148 68.7737C62.668 68.7518 62.5555 68.7299 62.4743 68.708C62.3462 68.6643 62.2337 68.5487 62.1369 68.3612C62.0275 68.1487 61.9463 67.9644 61.9025 67.8206C61.7401 67.3675 61.5839 66.9082 61.4402 66.4551C61.4402 66.4551 61.2027 65.6989 61.109 65.402C61.9931 65.2052 62.7461 64.9364 63.3365 64.599C63.9645 64.2427 64.4675 63.7647 64.833 63.1741C65.0517 62.821 65.1361 62.5272 65.1361 62.2898C65.1361 61.9367 64.9455 61.7023 64.7393 61.5523M61.8494 63.1991C61.4652 63.824 60.9965 64.2834 60.456 64.5677C59.7125 64.9614 59.0814 65.1521 58.5409 65.1521H58.216C58.4159 64.8333 60.2217 61.9054 60.2842 61.8054H60.7778C61.4245 61.8054 61.8494 61.921 62.0431 62.146C62.1119 62.2179 62.14 62.3148 62.14 62.4304C62.14 62.6304 62.0431 62.8866 61.8494 63.1991Z" fill="white"/>
<path d="M64.9084 69.4357L65.3427 68.742C65.855 68.742 66.2393 68.6733 66.4924 68.5327C66.7485 68.392 67.0047 68.1171 67.2609 67.7046L70.4039 62.6862C70.6538 62.2862 70.7475 62.0144 70.6788 61.8675C70.6132 61.7206 70.3133 61.6488 69.7821 61.6488L70.2133 60.9613L71.4067 60.9238C72.6127 60.8832 73.5468 60.8613 74.2185 60.8613C75.3401 60.8613 76.2149 60.9176 76.8459 61.0301C77.477 61.1426 77.9863 61.3894 78.3705 61.7706C78.7579 62.1519 78.9298 62.6456 78.886 63.2518C78.8454 63.858 78.5955 64.5267 78.1394 65.2548C77.6707 66.0016 77.0771 66.6672 76.3523 67.2546C75.6275 67.8421 74.8527 68.3108 74.031 68.6608C73.2094 69.0107 72.4471 69.2264 71.7504 69.3107C71.0506 69.3951 69.9383 69.4357 68.4106 69.4357H64.9053H64.9084ZM73.6218 61.6238L69.9665 67.4609C69.7322 67.8358 69.5947 68.0889 69.5541 68.2171C69.5135 68.3452 69.5541 68.4577 69.6697 68.5483C69.7884 68.6389 70.0289 68.6858 70.3914 68.6858C71.2911 68.6858 72.144 68.3983 72.9532 67.8233C73.7592 67.2484 74.5215 66.3891 75.2401 65.2423C75.8181 64.3173 76.1149 63.5799 76.1274 63.033C76.1399 62.4862 75.943 62.1144 75.54 61.9175C75.137 61.7206 74.4965 61.6238 73.6186 61.6238" fill="white"/>
<path d="M81.6942 65.3987C82.241 64.9706 82.7564 64.6488 83.2469 64.4332C83.7343 64.2176 84.1936 64.1113 84.6185 64.1113C85.0434 64.1113 85.2652 64.2238 85.337 64.4457C85.4089 64.6675 85.362 64.9113 85.1964 65.1738C85.0434 65.4206 84.8278 65.63 84.5497 65.805C84.2717 65.9799 83.9811 66.0674 83.6812 66.0674C83.5188 66.0674 83.4 66.0393 83.3313 65.9862C83.2594 65.9331 83.1907 65.8206 83.1251 65.6487C83.0564 65.4831 82.922 65.3987 82.7221 65.3987C82.4097 65.3987 82.0723 65.5643 81.7098 65.8956C81.3474 66.2268 80.96 66.7236 80.5445 67.3861L80.1977 67.9423C80.004 68.2517 79.9228 68.4673 79.9572 68.5891C79.9915 68.711 80.2071 68.7735 80.6039 68.7735H80.7476L80.3321 69.4359H75.9707L76.3862 68.7735C76.8017 68.7735 77.1048 68.7141 77.2891 68.5923C77.4734 68.4704 77.6671 68.2548 77.8608 67.9423L78.9793 66.1549C79.1761 65.8393 79.2574 65.6206 79.2199 65.5019C79.1824 65.3831 78.9512 65.3237 78.5294 65.3237L78.9449 64.6613L82.2691 64.1113C82.191 64.4488 82.0004 64.8769 81.6942 65.3987Z" fill="white"/>
<path d="M89.6608 64.1113L87.2614 67.9423C87.0646 68.2579 86.9833 68.4766 87.0239 68.5953C87.0645 68.7141 87.2957 68.7735 87.7175 68.7735L87.302 69.4359H82.9062L83.3218 68.7735H83.4874C83.8935 68.7735 84.1903 68.711 84.3777 68.586C84.5652 68.461 84.7527 68.2454 84.9432 67.9423L86.1085 66.0799C86.3022 65.7705 86.3804 65.5549 86.3491 65.4331C86.3148 65.3112 86.0992 65.2487 85.6962 65.2487H85.5306L85.9461 64.5863L89.6639 64.1113H89.6608ZM88.5985 61.9427C88.7922 61.6333 89.0859 61.3677 89.4796 61.1459C89.8732 60.924 90.245 60.8115 90.6011 60.8115C90.9573 60.8115 91.1947 60.9209 91.3072 61.1427C91.4166 61.3646 91.3759 61.6302 91.1791 61.9427C90.9823 62.2552 90.6917 62.5208 90.3012 62.7426C89.9107 62.9645 89.5389 63.0739 89.1859 63.0739C88.8328 63.0739 88.5798 62.9614 88.4767 62.7333C88.3736 62.5083 88.4142 62.2427 88.6017 61.9427" fill="white"/>
<path d="M96.478 60.8115L92.0135 67.9423C91.8136 68.2641 91.7324 68.4829 91.7761 68.5985C91.8167 68.7141 92.0573 68.7735 92.4915 68.7735L92.076 69.4359H87.7021L88.1177 68.7735C88.5019 68.7735 88.7956 68.7328 89.0049 68.6547C89.2111 68.5766 89.4392 68.3391 89.6891 67.9423L92.932 62.7614C93.1382 62.4333 93.2132 62.2114 93.1601 62.1021C93.107 61.9927 92.8539 61.9364 92.3978 61.9364L92.8165 61.2677L96.478 60.8115Z" fill="white"/>
<path d="M101.074 60.8115L96.6092 67.9423C96.4093 68.2641 96.3281 68.4829 96.3718 68.5985C96.4124 68.7141 96.653 68.7735 97.0872 68.7735L96.6717 69.4359H92.2979L92.7134 68.7735C93.0977 68.7735 93.3913 68.7328 93.6006 68.6547C93.8068 68.5766 94.0349 68.3391 94.2848 67.9423L97.5278 62.7614C97.734 62.4333 97.8089 62.2114 97.7558 62.1021C97.7027 61.9927 97.4496 61.9364 96.9935 61.9364L97.4122 61.2677L101.074 60.8115Z" fill="white"/>
<path d="M103.764 64.1113L101.365 67.9423C101.168 68.2579 101.087 68.4766 101.127 68.5953C101.168 68.7141 101.399 68.7735 101.821 68.7735L101.405 69.4359H97.0098L97.4253 68.7735H97.5909C97.997 68.7735 98.2938 68.711 98.4813 68.586C98.6687 68.461 98.8562 68.2454 99.0467 67.9423L100.212 66.0799C100.406 65.7705 100.484 65.5549 100.453 65.4331C100.418 65.3112 100.203 65.2487 99.7997 65.2487H99.6341L100.05 64.5863L103.767 64.1113H103.764ZM102.702 61.9427C102.896 61.6333 103.189 61.3677 103.583 61.1459C103.977 60.924 104.352 60.8115 104.705 60.8115C105.058 60.8115 105.298 60.9209 105.411 61.1427C105.52 61.3646 105.479 61.6302 105.283 61.9427C105.086 62.2552 104.795 62.5208 104.405 62.7426C104.014 62.9645 103.642 63.0739 103.289 63.0739C102.936 63.0739 102.683 62.9614 102.58 62.7333C102.477 62.5083 102.518 62.2427 102.705 61.9427" fill="white"/>
<path d="M107.491 65.9237L106.219 67.9548C106.038 68.2454 105.957 68.4548 105.979 68.5798C106.001 68.7048 106.141 68.7704 106.397 68.7735L105.982 69.4359H101.958L102.374 68.7735C102.789 68.7735 103.092 68.7172 103.28 68.6016C103.467 68.486 103.658 68.2704 103.858 67.9548L104.954 66.2049C105.151 65.8893 105.232 65.6706 105.195 65.5519C105.157 65.4331 104.926 65.3737 104.504 65.3737L104.92 64.7113L108.394 64.2551C108.372 64.4176 108.266 64.6675 108.069 65.005C108.572 64.705 109.044 64.48 109.484 64.3332C109.925 64.1863 110.331 64.1113 110.706 64.1113C111.377 64.1113 111.802 64.2738 111.984 64.5957C112.165 64.9175 112.077 65.3612 111.727 65.9237L110.456 67.9548C110.259 68.2673 110.184 68.4829 110.228 68.5985C110.271 68.7141 110.49 68.7735 110.884 68.7735L110.468 69.4359H106.466L106.882 68.7735C107.088 68.7641 107.288 68.7141 107.482 68.6235C107.675 68.5329 107.885 68.3079 108.106 67.9548L109.281 66.0799C109.497 65.7393 109.587 65.505 109.556 65.38C109.528 65.255 109.412 65.1925 109.209 65.1925C109.006 65.1925 108.762 65.2519 108.478 65.3737C108.191 65.4956 107.863 65.6768 107.494 65.9237" fill="white"/>
<path d="M113.418 67.6111C112.968 67.4955 112.699 67.2767 112.612 66.9549C112.524 66.633 112.593 66.2893 112.824 65.9237C113.193 65.3362 113.764 64.8894 114.539 64.5832C115.314 64.2769 116.164 64.1238 117.082 64.1238C117.588 64.1238 118.007 64.1676 118.329 64.2582C118.654 64.3488 118.888 64.4832 119.029 64.6613C119.76 64.2957 120.297 64.1113 120.638 64.1113C121.116 64.1113 121.231 64.3144 120.978 64.7175C120.763 65.0581 120.491 65.23 120.163 65.23C120.044 65.23 119.925 65.1519 119.813 64.9988C119.769 64.9394 119.71 64.9113 119.638 64.9113C119.538 64.9113 119.397 64.9581 119.216 65.055C119.235 65.3144 119.147 65.6018 118.944 65.9237C118.629 66.4268 118.129 66.858 117.448 67.2111C116.757 67.5705 115.808 67.7704 114.592 67.8111C114.083 67.8267 113.711 67.8736 113.471 67.9486C113.233 68.0236 113.065 68.1392 112.965 68.2985C112.827 68.5204 113.068 68.6298 113.692 68.6298C113.827 68.6298 114.139 68.6204 114.636 68.6048C114.805 68.6016 114.977 68.5985 115.148 68.5985C116.192 68.5985 116.857 68.7391 117.145 69.0235C117.432 69.3078 117.379 69.7641 116.985 70.3921C116.576 71.0452 115.92 71.5795 115.017 71.9889C114.114 72.3982 113.005 72.6045 111.693 72.6045C110.45 72.6045 109.684 72.467 109.4 72.192C109.116 71.917 109.084 71.6077 109.3 71.2608C109.434 71.0452 109.631 70.8671 109.881 70.7296C110.134 70.5921 110.365 70.5234 110.581 70.5234C110.753 70.5234 110.928 70.5702 111.103 70.6671C111.021 70.7421 110.949 70.814 110.887 70.8827C110.824 70.9515 110.774 71.014 110.74 71.0733C110.559 71.3639 110.587 71.5827 110.831 71.7295C111.074 71.8764 111.531 71.9483 112.202 71.9483C113.036 71.9483 113.724 71.8452 114.264 71.642C114.805 71.4389 115.17 71.1889 115.355 70.8921C115.53 70.614 115.498 70.4359 115.264 70.3609C115.03 70.2859 114.402 70.2484 113.386 70.2484C112.274 70.2484 111.543 70.1484 111.187 69.9453C110.831 69.7422 110.806 69.4016 111.109 68.9172C111.318 68.5798 111.618 68.3017 112.005 68.0829C112.39 67.8642 112.861 67.7079 113.414 67.6111M115.089 65.8737C114.839 66.2737 114.723 66.5737 114.742 66.7768C114.761 66.9799 114.914 67.0799 115.201 67.0799C115.489 67.0799 115.751 66.9767 116.023 66.7674C116.292 66.558 116.557 66.2456 116.82 65.83C117.048 65.4675 117.126 65.205 117.06 65.0425C116.995 64.88 116.845 64.7988 116.61 64.7988C116.329 64.7988 116.061 64.8894 115.808 65.0675C115.555 65.2456 115.314 65.5144 115.092 65.8737" fill="white"/>
<path d="M8.9035 69.3671L8.70356 68.4203H8.65357C8.3224 68.8359 7.99124 69.1202 7.6632 69.2671C7.33516 69.414 6.92276 69.489 6.42914 69.489C5.76994 69.489 5.25445 69.3202 4.87954 68.9796C4.50464 68.639 4.32031 68.1578 4.32031 67.5297C4.32031 66.1861 5.39503 65.483 7.54135 65.4205L8.66919 65.383V64.9705C8.66919 64.4487 8.55672 64.0644 8.33178 63.8144C8.10683 63.5644 7.74755 63.4425 7.25393 63.4425C6.70095 63.4425 6.07298 63.6113 5.37317 63.9519L5.06387 63.1832C5.39191 63.0051 5.75119 62.8644 6.14172 62.7644C6.53224 62.6645 6.92277 62.6113 7.31641 62.6113C8.10996 62.6113 8.69731 62.7863 9.07846 63.1394C9.45961 63.4925 9.65019 64.055 9.65019 64.833V69.3702H8.9035V69.3671ZM6.62909 68.6578C7.25705 68.6578 7.74755 68.4859 8.10683 68.1422C8.46612 67.7985 8.6442 67.3172 8.6442 66.6985V66.0986L7.63821 66.1423C6.83841 66.1705 6.26044 66.2954 5.9074 66.5142C5.55437 66.736 5.37629 67.0766 5.37629 67.5422C5.37629 67.9047 5.48564 68.1828 5.70745 68.3734C5.92927 68.564 6.23544 68.6578 6.63221 68.6578H6.62909Z" fill="white"/>
<path d="M127.37 69.4888C126.408 69.4888 125.664 69.1919 125.136 68.6013C124.608 68.0076 124.346 67.1702 124.346 66.0859C124.346 65.0016 124.614 64.1141 125.149 63.5079C125.683 62.9017 126.448 62.5986 127.439 62.5986C127.757 62.5986 128.076 62.633 128.398 62.7018C128.716 62.7705 128.97 62.8517 129.151 62.9455L128.841 63.8017C128.62 63.7142 128.376 63.6392 128.113 63.5798C127.851 63.5204 127.62 63.4923 127.417 63.4923C126.067 63.4923 125.392 64.3548 125.392 66.0765C125.392 66.8921 125.558 67.5202 125.886 67.9576C126.214 68.3951 126.704 68.6138 127.351 68.6138C127.904 68.6138 128.473 68.4951 129.057 68.2545V69.145C128.613 69.3763 128.051 69.4919 127.376 69.4919L127.37 69.4888Z" fill="white"/>
<path d="M135.743 66.0359C135.743 67.1202 135.471 67.967 134.924 68.5732C134.377 69.1825 133.624 69.4856 132.662 69.4856C132.069 69.4856 131.541 69.345 131.078 69.0669C130.616 68.7888 130.263 68.3888 130.01 67.867C129.76 67.3452 129.635 66.7358 129.635 66.0359C129.635 64.9516 129.907 64.1079 130.447 63.5048C130.988 62.9017 131.74 62.5986 132.703 62.5986C133.665 62.5986 134.371 62.908 134.918 63.5267C135.465 64.1454 135.739 64.9828 135.739 66.039L135.743 66.0359ZM130.678 66.0359C130.678 66.8858 130.847 67.5327 131.187 67.9764C131.528 68.4201 132.025 68.6451 132.684 68.6451C133.343 68.6451 133.843 68.4232 134.184 67.9795C134.524 67.5358 134.696 66.889 134.696 66.0359C134.696 65.1828 134.524 64.5485 134.184 64.111C133.843 63.6736 133.337 63.4517 132.671 63.4517C132.006 63.4517 131.516 63.6673 131.178 64.1017C130.841 64.536 130.675 65.1797 130.675 66.0359H130.678Z" fill="white"/>
<path d="M145.359 69.3667V65.042C145.359 64.5108 145.246 64.114 145.018 63.8515C144.79 63.5859 144.44 63.4546 143.962 63.4546C143.334 63.4546 142.872 63.6359 142.572 63.9952C142.272 64.3546 142.122 64.9076 142.122 65.6576V69.3698H141.116V65.0451C141.116 64.5139 141.004 64.1171 140.776 63.8546C140.548 63.5921 140.195 63.4578 139.714 63.4578C139.082 63.4578 138.62 63.6484 138.326 64.0265C138.033 64.4046 137.886 65.0233 137.886 65.8857V69.373H136.88V62.7234H137.698L137.861 63.6327H137.911C138.101 63.3078 138.37 63.0578 138.714 62.8734C139.061 62.6922 139.445 62.6016 139.876 62.6016C140.916 62.6016 141.594 62.9765 141.913 63.7296H141.963C142.16 63.3828 142.447 63.1078 142.825 62.9047C143.2 62.7016 143.631 62.6016 144.112 62.6016C144.865 62.6016 145.428 62.7953 145.803 63.1796C146.177 63.5671 146.362 64.1827 146.362 65.0326V69.3698H145.356L145.359 69.3667Z" fill="white"/>
<path d="M150.911 69.4892C150.48 69.4892 150.083 69.4079 149.727 69.2486C149.371 69.0892 149.068 68.8423 148.827 68.5111H148.755C148.805 68.8986 148.827 69.2673 148.827 69.6142V72.3483H147.821V62.7146H148.64L148.78 63.624H148.827C149.087 63.2584 149.387 62.9959 149.73 62.8365C150.074 62.674 150.467 62.5928 150.914 62.5928C151.795 62.5928 152.476 62.8928 152.954 63.4958C153.432 64.0989 153.673 64.9426 153.673 66.03C153.673 67.1175 153.429 67.9705 152.942 68.5736C152.454 69.1767 151.78 69.4798 150.914 69.4798L150.911 69.4892ZM150.767 63.4552C150.089 63.4552 149.596 63.6427 149.293 64.0208C148.99 64.3958 148.834 64.9957 148.824 65.8175V66.0425C148.824 66.9768 148.98 67.6455 149.293 68.0486C149.605 68.4517 150.102 68.6517 150.789 68.6517C151.364 68.6517 151.814 68.4205 152.139 67.9549C152.464 67.4893 152.626 66.8487 152.626 66.0332C152.626 65.2176 152.464 64.5676 152.139 64.127C151.814 63.6864 151.355 63.4615 150.764 63.4615L150.767 63.4552Z" fill="white"/>
<path d="M158.897 69.3671L158.697 68.4203H158.647C158.316 68.8359 157.984 69.1202 157.656 69.2671C157.328 69.414 156.916 69.489 156.422 69.489C155.763 69.489 155.248 69.3202 154.873 68.9796C154.498 68.639 154.313 68.1578 154.313 67.5297C154.313 66.1861 155.388 65.483 157.535 65.4205L158.662 65.383V64.9705C158.662 64.4487 158.55 64.0644 158.325 63.8144C158.1 63.5644 157.741 63.4425 157.247 63.4425C156.694 63.4425 156.066 63.6113 155.366 63.9519L155.057 63.1832C155.385 63.0051 155.744 62.8644 156.135 62.7644C156.525 62.6645 156.916 62.6113 157.31 62.6113C158.103 62.6113 158.69 62.7863 159.072 63.1394C159.453 63.4925 159.643 64.055 159.643 64.833V69.3702H158.897V69.3671ZM156.622 68.6578C157.25 68.6578 157.741 68.4859 158.1 68.1422C158.456 67.7985 158.637 67.3172 158.637 66.6985V66.0986L157.631 66.1423C156.832 66.1705 156.254 66.2954 155.901 66.5142C155.548 66.736 155.369 67.0766 155.369 67.5422C155.369 67.9047 155.479 68.1828 155.701 68.3734C155.922 68.564 156.229 68.6578 156.625 68.6578H156.622Z" fill="white"/>
<path d="M165.645 69.3669V65.0672C165.645 64.5266 165.52 64.1204 165.273 63.8548C165.026 63.5892 164.639 63.4548 164.114 63.4548C163.417 63.4548 162.908 63.6423 162.586 64.0204C162.261 64.3954 162.102 65.0172 162.102 65.8828V69.37H161.096V62.7205H161.914L162.08 63.6298H162.127C162.333 63.3017 162.623 63.0486 162.995 62.8674C163.367 62.6861 163.783 62.5986 164.239 62.5986C165.038 62.5986 165.641 62.7924 166.048 63.1767C166.451 63.5642 166.654 64.1798 166.654 65.0297V69.3669H165.648H165.645Z" fill="white"/>
<path d="M167.044 62.7207H168.125L169.581 66.5111C169.899 67.3766 170.099 68.0016 170.174 68.3859H170.224C170.277 68.1797 170.387 67.8266 170.556 67.3266C170.724 66.8267 171.271 65.2924 172.202 62.7207H173.283L170.427 70.292C170.143 71.0389 169.815 71.5701 169.437 71.8857C169.059 72.1982 168.594 72.3544 168.044 72.3544C167.738 72.3544 167.431 72.32 167.135 72.2513V71.4451C167.356 71.4951 167.606 71.517 167.881 71.517C168.572 71.517 169.065 71.1295 169.362 70.3514L169.734 69.4046L167.053 62.7207H167.044Z" fill="white"/>
</svg>
