<svg xmlns="http://www.w3.org/2000/svg" xmlns:xlink="http://www.w3.org/1999/xlink" width="129.451" height="57.711" viewBox="0 0 129.451 57.711">
  <defs>
    <clipPath id="clip-path">
      <rect id="Rectangle_2159" data-name="Rectangle 2159" width="57.711" height="129.451" fill="#3a7bbf"/>
    </clipPath>
  </defs>
  <g id="Group_1054" data-name="Group 1054" transform="translate(-83 -54.402)">
    <g id="Group_797" data-name="Group 797" transform="translate(212.451 54.402) rotate(90)">
      <g id="Group_779" data-name="Group 779" clip-path="url(#clip-path)">
        <path id="Path_2427" data-name="Path 2427" d="M49.2,126.76a13.345,13.345,0,0,0-.044-3.181,4.4,4.4,0,0,0-.685-2.083,11.4,11.4,0,0,0-1.535-1.042c-.28-.157-.559-.317-.839-.461-.3-.157-.61-.317-.914-.477a2.656,2.656,0,0,0,.356-.3,1.855,1.855,0,0,0,.6-.952,6.183,6.183,0,0,0,.189-.662l.057.016c.43.125.859.244,1.288.334q.7.138,1.392.279c.177.033.351.068.526.1a4.407,4.407,0,0,0,1.235-.079c.212.06.414-.068.605-.369a4.161,4.161,0,0,0,.455-1.286,10.784,10.784,0,0,0,.21-1.931,11.63,11.63,0,0,0-.274-2.864c-.5-2.292-1.393-2.807-2.187-3.032a7.3,7.3,0,0,1-1.2-.393q-1.24-.582-2.482-1.169c-1.123-.529-2.244-1.088-3.365-1.657-.893-.45-2.922-2.3-.233-1.372,1.2.3,2.393.507,3.592.705.5.084,1.009.152,1.514.187.411.03.821.054,1.233.084a5.031,5.031,0,0,0,1.753-.388c.454-.141.864-1.5,1.014-2.864.027-.25.047-.51.062-.776a16.129,16.129,0,0,0,.121-1.619,14.748,14.748,0,0,0-.363-3.8c-.283-1.117-.64-1.6-1.062-1.831-1.345-.73-2.7-1.245-4.045-1.928l-.833-.423.8.163a8.606,8.606,0,0,0,1.017.117,4.24,4.24,0,0,0,.455.008,6.05,6.05,0,0,0,.655-.1,7.665,7.665,0,0,0,.776-.475c.658-.426,1.166-2.281,1.222-4.519l0-.125.024-.011c.234-.1.446-.564.638-.974a4.127,4.127,0,0,0,.449-1.267,10.561,10.561,0,0,0,.206-1.9c.041-1.606-.263-3.5-.754-3.954-.609-.561-1.217-1.109-1.833-1.581-.661-.5-1.327-.917-1.993-1.326-.485-.3-.968-.613-1.452-.93l-2-1.294c.225.09.451.182.675.274,1.068.434,2.141.792,3.211,1.183.484.176.968.328,1.451.491.283.092.567.19.85.282q.452.151.906.269a2.082,2.082,0,0,0,1.351-.2c.566-.236,1.005-2.067,1.051-3.892,0-.084,0-.171,0-.255a5.083,5.083,0,0,0,1.034.049c.408-.005.762-.25,1.083-1.155a11.543,11.543,0,0,0,.521-3.371,14.047,14.047,0,0,0-.346-3.615c-.261-1.031-.613-1.57-1.01-1.736-1.259-.529-2.523-.979-3.783-1.538l-.274-.122a3.047,3.047,0,0,0,.515-.974,12.089,12.089,0,0,0,.55-3.339l.725.239c.534.176,1.068.331,1.6.5.231.073.462.144.693.214.269.084.539.171.809.255a1.558,1.558,0,0,0,.6.054c.147-.024.3-.052.444-.073a7.64,7.64,0,0,0,.59-.67,5.643,5.643,0,0,0,.623-1.76,16.4,16.4,0,0,0,.265-4.085c-.135-2.408-.734-4.082-1.447-4.361q-2.595-1.017-5.185-2.075c-1.177-.475-2.35-1.05-3.524-1.589.025-.184.048-.374.069-.567a16.93,16.93,0,0,0,.087-2.3c.421.163.841.325,1.262.483.732.274,1.464.556,2.2.822a16.35,16.35,0,0,0,2.963.955c.679.1,1.312-1.123,1.551-3.306a16.486,16.486,0,0,0,.067-2.682,9.79,9.79,0,0,0-.62-3.214,5.587,5.587,0,0,0-.466-.887,1.691,1.691,0,0,0-.656-.589,2.188,2.188,0,0,0-1.032-.068h-.023c-.455-.176-.91-.339-1.364-.518q-.362-.142-.724-.293a5.656,5.656,0,0,0,.413-1.3,12.944,12.944,0,0,0,.251-2.3,14.635,14.635,0,0,0-.132-2.408,5.049,5.049,0,0,0-.781-2.381,16.171,16.171,0,0,0-2.639-1.82c-.514-.269-1.028-.5-1.542-.778q-1.227-.659-2.451-1.321c-1.814-1.014-.513-1.324.1-1.538.471-.16.836-1.741.874-3.23a11.34,11.34,0,0,0-.1-1.847,3.825,3.825,0,0,0-.6-1.823A11.912,11.912,0,0,0,42.511,8.1q-.66-.346-1.321-.686a13.4,13.4,0,0,0-1.827-.7c-1.358-.485-2.719-.944-4.08-1.4-2.5-.852-4.99-1.749-7.485-2.6-1.261-.434-2.521-.852-3.783-1.234q-1.35-.411-2.7-.816c-.451-.136-.9-.25-1.352-.372A8.333,8.333,0,0,0,18.392,0,4.787,4.787,0,0,0,16.8.3a2.352,2.352,0,0,0-.765,1.218,12.945,12.945,0,0,0-.582,3.77c-.01.377-.007.754.007,1.126L14.3,5.709l-2.35-1.44q-.736-.452-1.469-.919A13.456,13.456,0,0,0,7.551,1.9C6.74,1.635,5.953,3.365,5.675,5.9a19.855,19.855,0,0,0,.066,4.757,6.769,6.769,0,0,0,1.024,3.114,8.888,8.888,0,0,0,1.178,1.047c.135.1.271.2.406.29l1.174.841c.216.155.431.306.645.458v.073c-.682.288-1.313,1.256-1.677,3.407-.069.434-.137.871-.206,1.3a18.628,18.628,0,0,0-.075,3.019,11.452,11.452,0,0,0,.772,3.822c-.066.225-.127.469-.182.73a15.832,15.832,0,0,0-.3,2.474l-.034-.016C7.3,30.6,6.081,29.49,4.9,30.274c-.752.5-1.333,2.6-1.4,5.175a16.288,16.288,0,0,0,.4,4.19q.164.5.326.993c.254.594.536.933.846,1.023.808.542,1.617,1.071,2.427,1.6-.027.2-.051.4-.07.608l-.062-.033a5.87,5.87,0,0,0-1.461-.453c-.669-.184-1.308,1.172-1.54,3.276-.277,2.52.116,5.579.894,6.458A13.109,13.109,0,0,0,7.687,55.1c.918.694,1.835,1.4,2.752,2.072l-.357-.266q2.231,1.692,4.464,3.39c-2.284-1.446-4.567-2.916-6.861-4.2-.3-.084-.585.092-.858.523a5.853,5.853,0,0,0-.646,1.825,17.182,17.182,0,0,0-.3,3.683,1.917,1.917,0,0,0-.7.024c-.325-.089-.633.1-.927.564a8.674,8.674,0,0,0-.914,3.352A19.481,19.481,0,0,0,3.4,70.746a6.551,6.551,0,0,0,1,3.054c.258.236.518.458.778.673a4.7,4.7,0,0,0,.794,2.067q1.307,1.294,2.627,2.43c-.289-.157-.578-.315-.867-.475L5.462,77.256c-.377-.206-.757-.407-1.134-.618a9.416,9.416,0,0,0-1.378-.651,2.813,2.813,0,0,0-1.576.054A2.4,2.4,0,0,0,.6,77.275,13.132,13.132,0,0,0,.006,81.1a17.631,17.631,0,0,0,.157,2.894A6.135,6.135,0,0,0,1.1,86.846c.017.019.036.035.053.052a7.756,7.756,0,0,0-.824,3.71,12.252,12.252,0,0,0,.3,3.162c.235.928.533,1.337.884,1.522q1,.549,1.989,1.131a11.94,11.94,0,0,0-.285,2.4c-.052,2.053.331,3.93.886,4.63v.005l.029.027a.839.839,0,0,0,.194.174A14.374,14.374,0,0,0,6.65,105.14c.581.347,1.166.648,1.75.974q1.874,1.033,3.748,2.029,1.043.557,2.088,1.1h0c-.062.068-.125.133-.187.2a4.731,4.731,0,0,0-.491.575c-.494.627-.75,2.68-.658,4.329.095,1.7.545,3.141,1.072,3.23.821.144,1.646,0,2.466.111.671.095,1.339.2,2.009.353,1.255.277,2.507.6,3.757.99,2.473.784,4.945,1.581,7.419,2.324,1.721.521,3.44,1.044,5.162,1.519,3.205,1.513,6.4,3.192,9.605,4.8l.493.263a29.385,29.385,0,0,0,3.061,1.494l.037.014c.527.146,1.038-1.05,1.218-2.68" transform="translate(0 0)" fill="#3a7bbf"/>
      </g>
    </g>
    <g id="logo" transform="translate(98 72)">
      <path id="Path_1" data-name="Path 1" d="M186.134,34.068c-.074.23-3.358,10.023-4.06,12.119a.319.319,0,0,0-.022.112.3.3,0,0,0,.305.285h8.175c1.248,0,1.436.813,1.235,1.382-.034.1-.376,1.13-.458,1.363-.29.831-.7,1.349-2.048,1.349H178.57c-1.283,0-2.261-.668-1.459-2.7.162-.416,4.526-13.528,4.691-14.012a1.8,1.8,0,0,1,1.744-1.18h1.3c1.385,0,1.4.942,1.284,1.286" transform="translate(-88.836 -32.731)" fill="#ffd100"/>
      <path id="Path_2" data-name="Path 2" d="M153.112,46.57h4.024a.3.3,0,0,0,.319-.285c0-.013-.878-6.223-.878-6.223a.311.311,0,0,0-.542-.155l-8.215,10.229a1.35,1.35,0,0,1-1.106.551h-2.987c-.217.049-1.054-.2-.571-.9q6.391-7.938,12.766-15.881a3.043,3.043,0,0,1,2.583-1.214c1.443.066,1.828.257,2.213,1.762l2,14.031c.236,1.509-.586,2.169-1.393,2.2l-10.832,0a.686.686,0,0,1-.617-1.06s.995-1.434,1.764-2.366a1.83,1.83,0,0,1,1.476-.69" transform="translate(-75.735 -32.693)" fill="#ffd100"/>
      <path id="Path_3" data-name="Path 3" d="M80.13,46.382l.746-2.25a.28.28,0,0,0,.01-.081.294.294,0,0,0-.3-.285l-3.254-.008a.68.68,0,0,1-.613-1.052s.978-1.428,1.743-2.354a1.825,1.825,0,0,1,1.47-.686l5.21.008a1.076,1.076,0,0,1,1.1,1.5c-.14.43-2.387,7.171-2.585,7.749-.368,1.062-.57,1.752-2.119,1.752H73.506a6.831,6.831,0,0,1-5.888-2.627,6.609,6.609,0,0,1-.684-6.329,12.719,12.719,0,0,1,4.919-6.317A12.97,12.97,0,0,1,79.5,32.779l7.944,0c.765,0,1.4.483,1.155,1.387-.1.366-.464,1.417-.624,1.849a1.5,1.5,0,0,1-1.609,1.075H78.482A7.6,7.6,0,0,0,71.7,41.94c-.45,1.346-.48,2.28.2,3.219a3.281,3.281,0,0,0,2.969,1.422h4.962a.307.307,0,0,0,.293-.2" transform="translate(-46.074 -32.73)" fill="#ffd100"/>
      <path id="Path_4" data-name="Path 4" d="M105.726,46.573h4.023a.3.3,0,0,0,.32-.285c0-.013-.88-6.221-.88-6.221a.31.31,0,0,0-.54-.157l-8.217,10.228a1.343,1.343,0,0,1-1.105.55H96.339c-.219.05-1.057-.205-.568-.9q6.389-7.941,12.763-15.886a3.028,3.028,0,0,1,2.581-1.21c1.444.061,1.83.252,2.215,1.76l2,14.03c.235,1.509-.589,2.167-1.394,2.2l-10.835,0a.686.686,0,0,1-.616-1.06s1-1.434,1.765-2.365a1.821,1.821,0,0,1,1.476-.691" transform="translate(-57.376 -32.695)" fill="#ffd100"/>
      <path id="Path_5" data-name="Path 5" d="M43.29,46.571h4.023a.3.3,0,0,0,.319-.286c0-.008-.88-6.22-.88-6.22a.3.3,0,0,0-.3-.262.311.311,0,0,0-.236.1L38,50.139a1.36,1.36,0,0,1-1.108.551l-2.986,0c-.218.048-1.055-.205-.57-.9Q39.728,41.852,46.1,33.907a3.034,3.034,0,0,1,2.583-1.21c1.444.064,1.828.25,2.216,1.759l2,14.032c.235,1.51-.586,2.168-1.394,2.2l-10.832,0a.687.687,0,0,1-.618-1.062s1-1.431,1.765-2.364a1.836,1.836,0,0,1,1.476-.693" transform="translate(-33.185 -32.695)" fill="#ffd100"/>
      <path id="Path_6" data-name="Path 6" d="M134.142,50.55a.3.3,0,0,1-.256.127h-3.468a.3.3,0,0,1-.3-.265c-.287-2.059-2.167-15.6-2.228-16.071a1.3,1.3,0,0,1,1.432-1.561h1.455a1.8,1.8,0,0,1,2.05,1.7c.035.259.932,6.7,1.232,8.856a.3.3,0,0,0,.3.259.31.31,0,0,0,.257-.133c1.656-2.052,7.216-8.945,7.481-9.275a2.8,2.8,0,0,1,2.537-1.408h2.219a.728.728,0,0,1,.657,1.214Z" transform="translate(-69.869 -32.729)" fill="#ffd100"/>
    </g>
  </g>
</svg>
