<?xml version="1.0" encoding="UTF-8"?>
<svg id="Capa_2" data-name="Capa 2" xmlns="http://www.w3.org/2000/svg" viewBox="0 0 136.3 79.93">
  <defs>
    <style>
      .cls-1 {
        fill: #1e1e1e;
      }
    </style>
  </defs>
  <g id="Capa_1-2" data-name="Capa 1">
    <g>
      <polygon class="cls-1" points="6.91 71.33 5.19 71.33 2.54 65.41 2.54 71.33 .55 71.33 .55 61.84 2.62 61.84 6.03 69.97 9.27 61.84 11.32 61.84 11.32 71.33 9.34 71.33 9.34 65.41 6.91 71.33"/>
      <polygon class="cls-1" points="26.48 63.08 22.05 63.08 22.05 65.67 25.57 65.67 25.57 66.89 22.05 66.89 22.05 70.1 26.67 70.1 26.67 71.33 20.06 71.33 20.06 61.84 26.48 61.84 26.48 63.08"/>
      <path class="cls-1" d="M36.95,63.07v7.04h.6c.57,0,1.08-.07,1.56-.23.48-.14.88-.37,1.23-.67.35-.3.62-.69.81-1.14.21-.46.3-1,.3-1.62,0-.44-.08-.85-.21-1.26-.13-.4-.35-.77-.64-1.08-.3-.31-.68-.57-1.16-.75-.48-.19-1.06-.29-1.76-.29h-.74ZM37.82,61.84c1.04,0,1.92.12,2.65.37.73.25,1.32.58,1.78,1,.45.43.79.92,1,1.47.2.57.3,1.15.3,1.78,0,.45-.04.87-.12,1.28-.09.4-.23.78-.42,1.15-.19.36-.44.69-.74.99-.31.3-.67.56-1.1.78-.43.22-.93.39-1.49.51-.57.12-1.21.18-1.93.18h-2.77v-9.49h2.85Z"/>
      <polygon class="cls-1" points="58.56 63.08 54.13 63.08 54.13 65.67 57.65 65.67 57.65 66.89 54.13 66.89 54.13 70.1 58.74 70.1 58.74 71.33 52.14 71.33 52.14 61.84 58.56 61.84 58.56 63.08"/>
      <polygon class="cls-1" points="73.92 71.33 67.03 71.33 67.03 61.84 69.03 61.84 69.03 70.1 73.92 70.1 73.92 71.33"/>
      <polygon class="cls-1" points="88.73 71.33 81.85 71.33 81.85 61.84 83.84 61.84 83.84 70.1 88.73 70.1 88.73 71.33"/>
      <path class="cls-1" d="M96.65,61.84h2v9.49h-2v-9.49ZM96.15,60.56l2.48-2.59,1.37,1.26-3.06,1.98-.79-.64Z"/>
      <polygon class="cls-1" points="109.25 64.54 109.25 71.33 107.26 71.33 107.26 61.84 109.14 61.84 113.95 68.66 113.95 61.84 115.95 61.84 115.97 71.33 114.09 71.33 109.25 64.54"/>
      <path class="cls-1" d="M2.96,79.26c-.13.19-.3.35-.49.48-.19.13-.47.19-.81.19-.51,0-.91-.21-1.21-.6-.29-.41-.45-.93-.45-1.57,0-.6.14-1.1.43-1.52.28-.42.71-.62,1.26-.62.23,0,.44.04.61.1.18.06.34.19.51.37l-.27.29c-.12-.13-.25-.23-.4-.29-.15-.07-.3-.09-.47-.09-.39,0-.68.17-.89.5-.22.34-.31.74-.31,1.2,0,.6.11,1.05.35,1.38.24.32.51.48.82.48s.51-.06.64-.14c.13-.09.25-.22.36-.38l.31.24Z"/>
      <polygon class="cls-1" points="6.52 76.09 4.82 76.09 4.82 77.5 6.18 77.5 6.18 77.84 4.82 77.84 4.82 79.5 6.6 79.5 6.6 79.86 4.38 79.86 4.38 75.72 6.52 75.72 6.52 76.09"/>
      <polygon class="cls-1" points="8.5 76.46 8.5 79.86 8.08 79.86 8.07 75.72 8.5 75.72 10.5 79.14 10.5 75.72 10.93 75.72 10.93 79.86 10.51 79.86 8.5 76.46"/>
      <polygon class="cls-1" points="15.18 76.1 13.93 76.1 13.93 79.86 13.5 79.86 13.5 76.1 12.26 76.1 12.26 75.72 15.18 75.72 15.18 76.1"/>
      <path class="cls-1" d="M16.93,77.76h.42c.34,0,.61-.09.79-.24.18-.16.28-.37.28-.62,0-.29-.08-.5-.24-.63-.15-.14-.41-.19-.78-.19h-.48v1.67ZM16.93,79.86h-.43v-4.14h1.09c.43,0,.75.09.96.31.22.21.33.5.33.88,0,.25-.08.48-.25.69-.16.2-.36.34-.58.39l1.12,1.87h-.51l-1.04-1.77s-.25,0-.68,0v1.77Z"/>
      <path class="cls-1" d="M22.2,79.55c.34,0,.63-.16.89-.47.27-.32.4-.8.4-1.41,0-.4-.11-.77-.31-1.13-.21-.36-.53-.54-.96-.54s-.75.15-.99.48c-.24.31-.35.74-.35,1.23,0,.59.12,1.05.38,1.37.25.31.57.47.95.47M22.17,79.93c-.57,0-1-.21-1.31-.6-.31-.41-.46-.95-.46-1.62,0-.61.17-1.1.51-1.5.34-.4.77-.6,1.28-.6.56,0,.98.2,1.29.6.3.4.45.93.45,1.58,0,.61-.17,1.13-.51,1.54-.34.4-.76.61-1.27.61"/>
      <path class="cls-1" d="M27.77,76.07v3.45h.33c.48,0,.85-.15,1.12-.45.28-.31.41-.77.41-1.36,0-.52-.13-.93-.38-1.21-.26-.29-.64-.43-1.14-.43h-.33ZM28.19,75.72c.63,0,1.11.18,1.43.54.31.35.46.85.46,1.45,0,.7-.16,1.23-.49,1.6-.33.37-.82.56-1.44.56h-.82v-4.14h.86Z"/>
      <polygon class="cls-1" points="33.81 76.09 32.1 76.09 32.1 77.5 33.46 77.5 33.46 77.84 32.1 77.84 32.1 79.5 33.88 79.5 33.88 79.86 31.66 79.86 31.66 75.72 33.81 75.72 33.81 76.09"/>
      <rect class="cls-1" x="37.17" y="75.72" width=".43" height="4.14"/>
      <polygon class="cls-1" points="39.65 76.46 39.65 79.86 39.23 79.86 39.22 75.72 39.65 75.72 41.65 79.14 41.65 75.72 42.08 75.72 42.08 79.86 41.67 79.86 39.65 76.46"/>
      <polygon class="cls-1" points="44.14 76.46 44.14 79.86 43.71 79.86 43.71 75.72 44.14 75.72 46.14 79.14 46.14 75.72 46.57 75.72 46.57 79.86 46.15 79.86 44.14 76.46"/>
      <path class="cls-1" d="M49.93,79.55c.33,0,.64-.16.9-.47.26-.32.39-.8.39-1.41,0-.4-.1-.77-.31-1.13-.21-.36-.52-.54-.96-.54-.42,0-.76.15-.99.48-.23.31-.36.74-.36,1.23,0,.59.12,1.05.37,1.37.26.31.57.47.95.47M49.91,79.93c-.56,0-1-.21-1.31-.6-.31-.41-.47-.95-.47-1.62,0-.61.18-1.1.53-1.5.34-.4.77-.6,1.28-.6.55,0,.98.2,1.29.6.29.4.45.93.45,1.58,0,.61-.17,1.13-.51,1.54-.33.4-.75.61-1.27.61"/>
      <polygon class="cls-1" points="55.49 75.72 55.96 75.72 54.65 79.86 54.22 79.86 52.95 75.72 53.42 75.72 54.46 79.22 55.49 75.72"/>
      <path class="cls-1" d="M57.91,78.13h1.18l-.58-1.9-.6,1.9ZM58.34,75.72h.42l1.33,4.14h-.48l-.42-1.41h-1.36l-.44,1.41h-.42l1.37-4.14Z"/>
      <path class="cls-1" d="M64.31,79.26c-.13.19-.3.35-.5.48-.19.13-.46.19-.82.19-.51,0-.9-.21-1.21-.6-.29-.41-.44-.93-.44-1.57,0-.6.14-1.1.43-1.52.28-.42.71-.62,1.26-.62.23,0,.43.04.61.1.18.06.35.19.51.37l-.27.29c-.12-.13-.25-.23-.38-.29-.15-.07-.31-.09-.48-.09-.39,0-.68.17-.89.5-.22.34-.33.74-.33,1.2,0,.6.13,1.05.36,1.38.24.32.52.48.82.48s.52-.06.64-.14c.13-.09.25-.22.36-.38l.32.24Z"/>
      <rect class="cls-1" x="65.72" y="75.72" width=".44" height="4.14"/>
      <path class="cls-1" d="M69.19,75.27l.78-.91.3.33-.93.74-.15-.16ZM69.53,79.55c.33,0,.63-.16.89-.47.26-.32.4-.8.4-1.41,0-.4-.1-.77-.31-1.13-.2-.36-.53-.54-.96-.54s-.75.15-1,.48c-.23.31-.36.74-.36,1.23,0,.59.13,1.05.38,1.37.26.31.57.47.96.47M69.5,79.93c-.56,0-1-.21-1.31-.6-.31-.41-.46-.95-.46-1.62,0-.61.17-1.1.52-1.5.35-.4.77-.6,1.28-.6.56,0,.99.2,1.29.6.3.4.45.93.45,1.58,0,.61-.16,1.13-.5,1.54-.34.4-.76.61-1.28.61"/>
      <polygon class="cls-1" points="73.28 76.46 73.28 79.86 72.85 79.86 72.84 75.72 73.28 75.72 75.27 79.14 75.27 75.72 75.71 75.72 75.71 79.86 75.28 79.86 73.28 76.46"/>
      <polygon class="cls-1" points="80.06 79.86 80.06 77.97 78.88 75.72 79.35 75.72 80.29 77.58 81.22 75.72 81.7 75.72 80.51 77.93 80.51 79.86 80.06 79.86"/>
      <polygon class="cls-1" points="85.31 76.46 85.31 79.86 84.87 79.86 84.86 75.72 85.31 75.72 87.3 79.14 87.3 75.72 87.73 75.72 87.73 79.86 87.31 79.86 85.31 76.46"/>
      <polygon class="cls-1" points="91.5 76.09 89.79 76.09 89.79 77.5 91.16 77.5 91.16 77.84 89.79 77.84 89.79 79.5 91.58 79.5 91.58 79.86 89.36 79.86 89.36 75.72 91.5 75.72 91.5 76.09"/>
      <path class="cls-1" d="M95.96,79.69c-.14.06-.32.12-.55.17-.23.06-.49.08-.79.08-.51,0-.9-.21-1.2-.6-.29-.41-.43-.93-.43-1.57,0-.6.14-1.1.43-1.52.28-.42.69-.62,1.21-.62.29,0,.52.04.67.1.16.06.33.19.51.37l-.28.29c-.13-.13-.26-.24-.39-.29-.13-.07-.3-.09-.52-.09-.35,0-.63.17-.84.5-.22.34-.32.74-.32,1.2,0,.6.12,1.05.36,1.38.24.32.53.48.86.48.16,0,.31-.02.45-.04.15-.03.29-.06.39-.1v-1.55h.44v1.81Z"/>
      <path class="cls-1" d="M99.12,79.55c.34,0,.63-.16.89-.47.27-.32.4-.8.4-1.41,0-.4-.1-.77-.31-1.13-.21-.36-.53-.54-.97-.54-.41,0-.74.15-.98.48-.24.31-.37.74-.37,1.23,0,.59.13,1.05.38,1.37.25.31.57.47.95.47M99.08,79.93c-.55,0-.99-.21-1.3-.6-.31-.41-.45-.95-.45-1.62,0-.61.17-1.1.51-1.5.35-.4.77-.6,1.28-.6.56,0,.99.2,1.29.6.31.4.46.93.46,1.58,0,.61-.17,1.13-.51,1.54-.33.4-.76.61-1.28.61"/>
      <path class="cls-1" d="M105.34,79.26c-.13.19-.3.35-.49.48-.2.13-.47.19-.82.19-.5,0-.91-.21-1.2-.6-.3-.41-.45-.93-.45-1.57,0-.6.15-1.1.43-1.52.28-.42.7-.62,1.27-.62.23,0,.43.04.61.1.18.06.34.19.51.37l-.27.29c-.12-.13-.25-.23-.4-.29-.14-.07-.31-.09-.48-.09-.38,0-.68.17-.89.5-.22.34-.32.74-.32,1.2,0,.6.12,1.05.36,1.38.25.32.52.48.82.48s.51-.06.65-.14c.13-.09.25-.22.36-.38l.31.24Z"/>
      <rect class="cls-1" x="106.77" y="75.72" width=".44" height="4.14"/>
      <path class="cls-1" d="M110.57,79.55c.34,0,.63-.16.89-.47.27-.32.4-.8.4-1.41,0-.4-.1-.77-.31-1.13-.21-.36-.53-.54-.97-.54s-.75.15-.99.48c-.24.31-.37.74-.37,1.23,0,.59.14,1.05.38,1.37.26.31.57.47.96.47M110.54,79.93c-.56,0-1-.21-1.31-.6-.3-.41-.46-.95-.46-1.62,0-.61.18-1.1.52-1.5.34-.4.77-.6,1.28-.6.55,0,.98.2,1.28.6.31.4.47.93.47,1.58,0,.61-.17,1.13-.51,1.54-.34.4-.76.61-1.27.61"/>
      <path class="cls-1" d="M114.03,79.03c.12.13.26.26.45.37.17.11.37.16.6.16.27,0,.48-.06.63-.19.17-.13.24-.32.24-.54,0-.24-.07-.41-.22-.53-.14-.11-.35-.22-.65-.33l-.22-.1c-.3-.11-.57-.27-.77-.46-.21-.18-.32-.44-.32-.75s.13-.57.36-.77c.24-.18.54-.28.9-.28.27,0,.51.04.69.13.19.09.35.21.5.36l-.26.31c-.1-.11-.24-.2-.39-.29-.15-.08-.33-.12-.53-.12-.24,0-.44.06-.6.17-.16.12-.23.26-.23.44,0,.22.08.39.25.52.18.13.36.23.54.3l.38.17c.39.15.66.31.8.49.14.17.22.4.22.68,0,.38-.13.67-.39.87-.25.21-.57.31-.94.31-.15,0-.3,0-.42-.03-.12-.03-.24-.06-.36-.11-.11-.04-.21-.1-.31-.18-.1-.07-.2-.16-.3-.26l.34-.32Z"/>
      <path class="cls-1" d="M109.55,41.87c0,3.36-1.52,4.93-4.79,4.93h-13.47c-3.27,0-4.79-1.33-4.79-4.21v-1.61c0-2.78,1.53-4.07,4.78-4.07h18.27v4.96ZM116.85,29.34v-4.91c0-8.29-4.06-12.5-12.08-12.5h-30.19V.06l-7.27-.06v11.92h-13.52v30.09c0,3.27-1.53,4.78-4.78,4.78h-13.54c-3.26,0-4.78-1.57-4.78-4.93V11.92h-7.27v29.94c0,8.29,4.05,12.5,12.03,12.5h13.55c8.03,0,12.1-4.15,12.1-12.35v-22.53h6.2v34.88h7.27V19.49h30.19c3.26,0,4.78,1.57,4.78,4.94v4.91h-18.27c-8.02,0-12.08,3.92-12.08,11.64v1.61c0,7.82,4.06,11.78,12.1,11.78h13.47c8.03,0,12.09-4.21,12.09-12.5v-4.96h11.99l7.46-7.57h-19.45ZM.43,24.42v29.94h7.26v-29.94c0-3.37,1.52-4.94,4.78-4.94h7.92v-7.56h-7.92C4.48,11.92.43,16.13.43,24.42"/>
      <path class="cls-1" d="M134.48,7.58l.95.31c-.58,1.47-1.25,2.55-2.02,3.24-.78.69-1.57,1.04-2.36,1.04-.68,0-1.19-.2-1.57-.57-.38-.39-.57-.9-.57-1.53,0-.56.18-1.48.53-2.72.51-1.87.8-3.02.89-3.46.09-.43.14-.79.14-1.05,0-.3-.08-.54-.21-.7-.14-.18-.32-.25-.53-.25-.38,0-.79.16-1.23.49-.72.54-1.4,1.34-2.04,2.42-.65,1.08-1.12,2.19-1.44,3.34l-1.02,3.78-3.11.13,2.43-9.42c.02-.1.03-.19.03-.28,0-.24-.08-.42-.25-.54-.16-.13-.49-.19-.95-.19h-.62l.17-1.12,5.08-.23-.9,3.93c1.73-2.73,3.43-4.07,5.08-4.07.75,0,1.36.23,1.84.71.48.49.71,1.09.71,1.82,0,.58-.11,1.3-.32,2.14l-1.07,4.14c-.2.65-.3,1.07-.3,1.24,0,.12.04.22.09.27.07.06.15.1.26.1.26,0,.55-.16.85-.49.49-.56.98-1.38,1.46-2.46"/>
    </g>
  </g>
</svg>